<svg xmlns="http://www.w3.org/2000/svg" xmlns:xlink="http://www.w3.org/1999/xlink" width="60" zoomAndPan="magnify" viewBox="0 0 45 44.999999" height="60" preserveAspectRatio="xMidYMid meet" version="1.0"><defs><clipPath id="id1"><path d="M 1.023438 2.339844 L 44.179688 2.339844 L 44.179688 42.839844 L 1.023438 42.839844 Z M 1.023438 2.339844 " clip-rule="nonzero"/></clipPath></defs><g clip-path="url(#id1)"><path fill="rgb(5.879211%, 0%, 39.608765%)" d="M 42.914062 37.949219 L 12.882812 37.949219 C 14.683594 35.277344 16.480469 31.941406 16.480469 29.246094 C 16.480469 24.980469 13.019531 21.515625 8.753906 21.515625 L 8.558594 21.515625 L 8.558594 11.96875 L 14.59375 11.96875 C 14.949219 11.96875 15.226562 11.683594 15.226562 11.335938 L 15.226562 6.738281 C 15.226562 6.378906 14.9375 6.105469 14.59375 6.105469 L 8.558594 6.105469 L 8.558594 3.597656 L 20.898438 3.597656 L 20.898438 14.421875 C 20.898438 14.640625 21.019531 14.84375 21.203125 14.960938 C 21.300781 15.019531 21.421875 15.050781 21.53125 15.050781 C 21.632812 15.050781 21.730469 15.027344 21.820312 14.984375 L 25.8125 12.9375 L 29.648438 14.976562 C 29.84375 15.078125 30.074219 15.078125 30.269531 14.960938 C 30.464844 14.84375 30.578125 14.640625 30.578125 14.421875 L 30.578125 3.597656 L 42.914062 3.597656 Z M 8.761719 41.269531 C 7.203125 39.359375 2.285156 33.042969 2.285156 29.238281 C 2.285156 25.671875 5.1875 22.769531 8.753906 22.769531 C 12.316406 22.769531 15.21875 25.671875 15.21875 29.238281 C 15.21875 33.3125 10.328125 39.414062 8.761719 41.269531 Z M 8.558594 7.363281 L 13.960938 7.363281 L 13.960938 10.695312 L 8.558594 10.695312 Z M 22.164062 3.597656 L 29.300781 3.597656 L 29.300781 13.367188 L 26.109375 11.664062 C 25.921875 11.5625 25.703125 11.5625 25.515625 11.65625 L 22.152344 13.375 L 22.152344 3.597656 Z M 43.546875 2.335938 L 7.925781 2.335938 C 7.570312 2.335938 7.292969 2.621094 7.292969 2.96875 L 7.292969 21.640625 C 3.726562 22.335938 1.023438 25.476562 1.023438 29.238281 C 1.023438 34.21875 7.976562 42.316406 8.269531 42.660156 C 8.390625 42.792969 8.566406 42.878906 8.742188 42.878906 L 8.75 42.878906 C 8.929688 42.878906 9.105469 42.804688 9.226562 42.667969 C 9.339844 42.535156 10.582031 41.160156 11.996094 39.210938 L 43.546875 39.210938 C 43.890625 39.210938 44.179688 38.929688 44.179688 38.582031 L 44.179688 2.96875 C 44.179688 2.621094 43.890625 2.335938 43.546875 2.335938 " fill-opacity="1" fill-rule="nonzero"/></g><path fill="rgb(5.879211%, 0%, 39.608765%)" d="M 8.664062 31.226562 C 7.46875 31.226562 6.492188 30.246094 6.492188 29.050781 C 6.492188 27.855469 7.46875 26.875 8.664062 26.875 C 9.863281 26.875 10.84375 27.855469 10.84375 29.050781 C 10.84375 30.246094 9.863281 31.226562 8.664062 31.226562 Z M 8.664062 25.609375 C 6.769531 25.609375 5.230469 27.152344 5.230469 29.050781 C 5.230469 30.945312 6.769531 32.488281 8.664062 32.488281 C 10.5625 32.488281 12.105469 30.945312 12.105469 29.050781 C 12.105469 27.152344 10.5625 25.609375 8.664062 25.609375 " fill-opacity="1" fill-rule="nonzero"/><path fill="rgb(5.879211%, 0%, 39.608765%)" d="M 21.808594 26.351562 C 21.808594 26.699219 22.09375 26.984375 22.441406 26.984375 L 40.605469 26.984375 C 40.960938 26.984375 41.238281 26.699219 41.238281 26.351562 C 41.238281 26 40.953125 25.722656 40.605469 25.722656 L 22.441406 25.722656 C 22.085938 25.722656 21.808594 26 21.808594 26.351562 " fill-opacity="1" fill-rule="nonzero"/><path fill="rgb(5.879211%, 0%, 39.608765%)" d="M 40.605469 29.773438 L 28.070312 29.773438 C 27.722656 29.773438 27.441406 30.0625 27.441406 30.40625 C 27.441406 30.75 27.722656 31.039062 28.070312 31.039062 L 40.605469 31.039062 C 40.960938 31.039062 41.238281 30.75 41.238281 30.40625 C 41.238281 30.054688 40.949219 29.773438 40.605469 29.773438 " fill-opacity="1" fill-rule="nonzero"/><path fill="rgb(5.879211%, 0%, 39.608765%)" d="M 40.605469 33.65625 L 23.789062 33.65625 C 23.4375 33.65625 23.15625 33.945312 23.15625 34.289062 C 23.15625 34.636719 23.445312 34.921875 23.789062 34.921875 L 40.605469 34.921875 C 40.960938 34.921875 41.238281 34.636719 41.238281 34.289062 C 41.238281 33.9375 40.949219 33.65625 40.605469 33.65625 " fill-opacity="1" fill-rule="nonzero"/></svg>