<svg xmlns="http://www.w3.org/2000/svg" xmlns:xlink="http://www.w3.org/1999/xlink" width="60" zoomAndPan="magnify" viewBox="0 0 45 44.999999" height="60" preserveAspectRatio="xMidYMid meet" version="1.0"><defs><clipPath id="id1"><path d="M 0.675781 0.675781 L 44.175781 0.675781 L 44.175781 44.175781 L 0.675781 44.175781 Z M 0.675781 0.675781 " clip-rule="nonzero"/></clipPath></defs><g clip-path="url(#id1)"><path fill="rgb(5.879211%, 0%, 39.608765%)" d="M 41.699219 12.449219 L 39.648438 10.398438 L 40.675781 9.375 L 42.726562 11.425781 Z M 34.75 30.199219 L 32.453125 31.5 C 32.351562 30.476562 31.574219 29.644531 30.542969 29.472656 L 29.304688 29.265625 C 29.285156 29.261719 29.269531 29.257812 29.25 29.257812 L 15.1875 26.855469 C 13.980469 26.664062 12.742188 26.777344 11.5625 27.207031 L 11.550781 27.207031 L 11.550781 7.199219 L 14.449219 7.199219 C 15.652344 7.199219 16.625 6.226562 16.625 5.023438 L 16.625 2.125 L 34.023438 2.125 C 34.425781 2.125 34.75 2.449219 34.75 2.851562 L 34.75 13.25 L 28.183594 19.816406 C 28.101562 19.894531 28.042969 19.992188 28.007812 20.101562 L 26.84375 23.589844 C 26.8125 23.683594 26.800781 23.777344 26.792969 23.875 L 14.449219 23.875 C 14.050781 23.875 13.726562 24.199219 13.726562 24.601562 C 13.726562 25 14.050781 25.324219 14.449219 25.324219 L 28.09375 25.324219 C 28.101562 25.324219 28.109375 25.320312 28.113281 25.320312 C 28.246094 25.316406 28.378906 25.300781 28.511719 25.257812 L 32.003906 24.089844 C 32.109375 24.054688 32.203125 23.996094 32.285156 23.917969 L 34.75 21.449219 Z M 27.980469 34.023438 L 25.574219 35.382812 C 25.351562 35.507812 25.085938 35.507812 24.890625 35.394531 L 22.683594 34.023438 Z M 40.75 28.472656 C 40.945312 28.367188 41.171875 28.339844 41.386719 28.402344 C 41.605469 28.460938 41.789062 28.605469 41.890625 28.796875 C 41.964844 28.925781 42 29.066406 42 29.210938 C 42 29.46875 41.882812 29.714844 41.675781 29.878906 L 26.21875 42.269531 C 25.667969 42.699219 24.933594 42.832031 24.269531 42.636719 L 9.511719 37.917969 C 9.238281 37.832031 8.957031 37.789062 8.667969 37.789062 C 8.664062 37.789062 8.660156 37.789062 8.648438 37.789062 L 8.648438 30.039062 L 12.089844 28.554688 C 13.003906 28.226562 13.992188 28.132812 14.953125 28.289062 L 29.046875 30.695312 C 29.058594 30.699219 29.082031 30.699219 29.101562 30.699219 L 30.304688 30.90625 C 30.707031 30.972656 31.015625 31.328125 31.015625 31.734375 C 31.015625 31.964844 30.929688 32.171875 30.78125 32.324219 C 30.613281 32.488281 30.398438 32.574219 30.175781 32.574219 L 17.238281 32.574219 C 16.839844 32.574219 16.515625 32.902344 16.515625 33.300781 C 16.515625 33.699219 16.839844 34.023438 17.238281 34.023438 L 19.9375 34.023438 L 24.152344 36.644531 C 24.824219 37.019531 25.621094 37.019531 26.285156 36.648438 Z M 7.199219 39.101562 C 7.199219 39.5 6.875 39.824219 6.476562 39.824219 L 2.851562 39.824219 C 2.449219 39.824219 2.125 39.5 2.125 39.101562 L 2.125 28.949219 C 2.125 28.550781 2.449219 28.226562 2.851562 28.226562 L 6.476562 28.226562 C 6.875 28.226562 7.199219 28.550781 7.199219 28.949219 L 7.199219 29.519531 C 7.199219 29.535156 7.191406 29.550781 7.191406 29.566406 L 7.199219 38.644531 Z M 15.175781 3.148438 L 15.175781 5.023438 C 15.175781 5.425781 14.847656 5.75 14.449219 5.75 L 12.574219 5.75 Z M 37.597656 12.449219 L 38.625 11.425781 L 40.675781 13.476562 L 39.648438 14.5 Z M 31.777344 22.375 L 29.726562 20.324219 L 36.574219 13.476562 L 38.625 15.527344 Z M 28.300781 23.796875 L 29.015625 21.664062 L 30.433594 23.085938 Z M 41.699219 8.351562 C 41.425781 8.074219 41.0625 7.925781 40.675781 7.925781 C 40.675781 7.925781 40.675781 7.925781 40.671875 7.925781 C 40.285156 7.925781 39.921875 8.078125 39.648438 8.351562 L 36.199219 11.800781 L 36.199219 2.851562 C 36.199219 1.648438 35.226562 0.675781 34.023438 0.675781 L 16.503906 0.675781 C 15.917969 0.675781 15.375 0.902344 14.960938 1.316406 L 10.738281 5.535156 C 10.328125 5.949219 10.101562 6.496094 10.101562 7.078125 L 10.101562 27.835938 L 8.597656 28.484375 C 8.382812 27.507812 7.515625 26.773438 6.476562 26.773438 L 2.851562 26.773438 C 1.648438 26.773438 0.675781 27.75 0.675781 28.949219 L 0.675781 39.101562 C 0.675781 40.300781 1.648438 41.273438 2.851562 41.273438 L 6.476562 41.273438 C 7.625 41.273438 8.5625 40.375 8.636719 39.242188 C 8.785156 39.234375 8.9375 39.253906 9.074219 39.296875 L 23.839844 44.023438 C 24.183594 44.125 24.535156 44.171875 24.882812 44.171875 C 25.683594 44.171875 26.472656 43.910156 27.121094 43.40625 L 42.582031 31.011719 C 43.125 30.582031 43.449219 29.90625 43.449219 29.210938 C 43.449219 28.824219 43.351562 28.441406 43.160156 28.097656 C 42.867188 27.5625 42.375 27.175781 41.789062 27.007812 C 41.203125 26.839844 40.578125 26.90625 40.039062 27.207031 L 36.199219 29.378906 L 36.199219 20 L 43.75 12.449219 C 44.023438 12.179688 44.175781 11.8125 44.175781 11.429688 C 44.175781 11.039062 44.023438 10.675781 43.75 10.398438 L 41.699219 8.351562 " fill-opacity="1" fill-rule="nonzero"/></g><path fill="rgb(5.879211%, 0%, 39.608765%)" d="M 5.023438 29.675781 L 4.300781 29.675781 C 3.902344 29.675781 3.574219 30 3.574219 30.398438 C 3.574219 30.800781 3.902344 31.125 4.300781 31.125 L 5.023438 31.125 C 5.425781 31.125 5.75 30.800781 5.75 30.398438 C 5.75 30 5.425781 29.675781 5.023438 29.675781 " fill-opacity="1" fill-rule="nonzero"/><path fill="rgb(5.879211%, 0%, 39.608765%)" d="M 5.023438 36.925781 L 4.300781 36.925781 C 3.902344 36.925781 3.574219 37.25 3.574219 37.648438 C 3.574219 38.050781 3.902344 38.375 4.300781 38.375 L 5.023438 38.375 C 5.425781 38.375 5.75 38.050781 5.75 37.648438 C 5.75 37.25 5.425781 36.925781 5.023438 36.925781 " fill-opacity="1" fill-rule="nonzero"/><path fill="rgb(5.879211%, 0%, 39.608765%)" d="M 14.449219 21.699219 L 24.601562 21.699219 C 25 21.699219 25.324219 21.375 25.324219 20.976562 C 25.324219 20.574219 25 20.25 24.601562 20.25 L 14.449219 20.25 C 14.050781 20.25 13.726562 20.574219 13.726562 20.976562 C 13.726562 21.375 14.050781 21.699219 14.449219 21.699219 " fill-opacity="1" fill-rule="nonzero"/><path fill="rgb(5.879211%, 0%, 39.608765%)" d="M 14.449219 18.074219 L 20.25 18.074219 C 20.648438 18.074219 20.976562 17.75 20.976562 17.351562 C 20.976562 16.949219 20.648438 16.625 20.25 16.625 L 14.449219 16.625 C 14.050781 16.625 13.726562 16.949219 13.726562 17.351562 C 13.726562 17.75 14.050781 18.074219 14.449219 18.074219 " fill-opacity="1" fill-rule="nonzero"/><path fill="rgb(5.879211%, 0%, 39.608765%)" d="M 14.449219 10.824219 L 31.851562 10.824219 C 32.25 10.824219 32.574219 10.5 32.574219 10.101562 C 32.574219 9.699219 32.25 9.375 31.851562 9.375 L 14.449219 9.375 C 14.050781 9.375 13.726562 9.699219 13.726562 10.101562 C 13.726562 10.5 14.050781 10.824219 14.449219 10.824219 " fill-opacity="1" fill-rule="nonzero"/><path fill="rgb(5.879211%, 0%, 39.608765%)" d="M 27.5 16.625 L 23.148438 16.625 C 22.75 16.625 22.425781 16.949219 22.425781 17.351562 C 22.425781 17.75 22.75 18.074219 23.148438 18.074219 L 27.5 18.074219 C 27.898438 18.074219 28.226562 17.75 28.226562 17.351562 C 28.226562 16.949219 27.898438 16.625 27.5 16.625 " fill-opacity="1" fill-rule="nonzero"/><path fill="rgb(5.879211%, 0%, 39.608765%)" d="M 14.449219 14.449219 L 15.898438 14.449219 C 16.300781 14.449219 16.625 14.125 16.625 13.726562 C 16.625 13.324219 16.300781 13 15.898438 13 L 14.449219 13 C 14.050781 13 13.726562 13.324219 13.726562 13.726562 C 13.726562 14.125 14.050781 14.449219 14.449219 14.449219 " fill-opacity="1" fill-rule="nonzero"/><path fill="rgb(5.879211%, 0%, 39.608765%)" d="M 31.125 13 L 18.800781 13 C 18.402344 13 18.074219 13.324219 18.074219 13.726562 C 18.074219 14.125 18.402344 14.449219 18.800781 14.449219 L 31.125 14.449219 C 31.523438 14.449219 31.851562 14.125 31.851562 13.726562 C 31.851562 13.324219 31.523438 13 31.125 13 " fill-opacity="1" fill-rule="nonzero"/></svg>