<svg xmlns="http://www.w3.org/2000/svg" xmlns:xlink="http://www.w3.org/1999/xlink" width="60" zoomAndPan="magnify" viewBox="0 0 45 44.999999" height="60" preserveAspectRatio="xMidYMid meet" version="1.0"><defs><clipPath id="id1"><path d="M 5.640625 2.28125 L 39.390625 2.28125 L 39.390625 42.78125 L 5.640625 42.78125 Z M 5.640625 2.28125 " clip-rule="nonzero"/></clipPath></defs><g clip-path="url(#id1)"><path fill="rgb(5.879211%, 0%, 39.608765%)" d="M 7.003906 6.332031 L 27.238281 6.332031 L 27.238281 13.757812 C 27.238281 14.128906 27.542969 14.429688 27.914062 14.429688 L 35.332031 14.429688 L 35.332031 41.429688 L 7.003906 41.429688 Z M 9.703125 3.632812 L 29.9375 3.632812 L 29.9375 6.726562 L 28.390625 5.179688 C 28.332031 5.121094 28.265625 5.078125 28.191406 5.046875 C 28.171875 5.035156 28.152344 5.03125 28.128906 5.023438 C 28.074219 5.003906 28.015625 4.996094 27.957031 4.988281 C 27.941406 4.988281 27.929688 4.980469 27.914062 4.980469 L 9.703125 4.980469 Z M 37.078125 10.382812 L 31.285156 10.382812 L 31.285156 4.585938 Z M 36.683594 38.730469 L 36.683594 13.757812 C 36.683594 13.742188 36.675781 13.730469 36.675781 13.714844 C 36.667969 13.652344 36.660156 13.597656 36.640625 13.539062 C 36.632812 13.519531 36.628906 13.496094 36.617188 13.476562 C 36.585938 13.40625 36.542969 13.335938 36.484375 13.277344 L 34.9375 11.730469 L 38.03125 11.730469 L 38.03125 38.730469 Z M 28.589844 7.285156 L 29.9375 8.636719 L 29.9375 11.054688 C 29.9375 11.429688 30.242188 11.730469 30.613281 11.730469 L 33.03125 11.730469 L 34.378906 13.082031 L 28.589844 13.082031 Z M 6.328125 42.78125 L 36.007812 42.78125 C 36.378906 42.78125 36.683594 42.476562 36.683594 42.105469 L 36.683594 40.082031 L 38.707031 40.082031 C 39.078125 40.082031 39.378906 39.777344 39.378906 39.40625 L 39.378906 11.054688 C 39.378906 11.039062 39.371094 11.03125 39.371094 11.015625 C 39.367188 10.953125 39.355469 10.898438 39.339844 10.839844 C 39.332031 10.820312 39.324219 10.796875 39.316406 10.777344 C 39.285156 10.707031 39.242188 10.636719 39.183594 10.578125 L 31.089844 2.480469 C 31.03125 2.421875 30.964844 2.382812 30.890625 2.347656 C 30.871094 2.335938 30.847656 2.332031 30.824219 2.324219 C 30.769531 2.304688 30.714844 2.292969 30.65625 2.292969 C 30.640625 2.289062 30.628906 2.28125 30.613281 2.28125 L 9.027344 2.28125 C 8.65625 2.28125 8.351562 2.585938 8.351562 2.957031 L 8.351562 4.980469 L 6.328125 4.980469 C 5.957031 4.980469 5.652344 5.285156 5.652344 5.65625 L 5.652344 42.105469 C 5.652344 42.476562 5.957031 42.78125 6.328125 42.78125 " fill-opacity="1" fill-rule="nonzero"/></g><path fill="rgb(5.879211%, 0%, 39.608765%)" d="M 21.167969 9.03125 C 21.910156 9.03125 22.515625 9.636719 22.515625 10.382812 C 22.515625 11.125 21.910156 11.730469 21.167969 11.730469 C 20.425781 11.730469 19.820312 11.125 19.820312 10.382812 C 19.820312 9.636719 20.425781 9.03125 21.167969 9.03125 Z M 21.167969 13.082031 C 22.65625 13.082031 23.867188 11.871094 23.867188 10.382812 C 23.867188 8.890625 22.65625 7.679688 21.167969 7.679688 C 19.679688 7.679688 18.46875 8.890625 18.46875 10.382812 C 18.46875 11.871094 19.679688 13.082031 21.167969 13.082031 " fill-opacity="1" fill-rule="nonzero"/><path fill="rgb(5.879211%, 0%, 39.608765%)" d="M 25.890625 14.429688 L 16.445312 14.429688 L 16.445312 15.78125 L 25.890625 15.78125 L 25.890625 14.429688 " fill-opacity="1" fill-rule="nonzero"/><path fill="rgb(5.879211%, 0%, 39.608765%)" d="M 27.238281 18.480469 L 33.984375 18.480469 L 33.984375 17.132812 L 27.238281 17.132812 L 27.238281 18.480469 " fill-opacity="1" fill-rule="nonzero"/><path fill="rgb(5.879211%, 0%, 39.608765%)" d="M 25.890625 21.179688 L 33.984375 21.179688 L 33.984375 19.832031 L 25.890625 19.832031 L 25.890625 21.179688 " fill-opacity="1" fill-rule="nonzero"/><path fill="rgb(5.879211%, 0%, 39.608765%)" d="M 17.796875 17.132812 L 8.351562 17.132812 L 8.351562 18.480469 L 17.796875 18.480469 L 17.796875 17.132812 " fill-opacity="1" fill-rule="nonzero"/><path fill="rgb(5.879211%, 0%, 39.608765%)" d="M 16.445312 19.832031 L 8.351562 19.832031 L 8.351562 21.179688 L 16.445312 21.179688 L 16.445312 19.832031 " fill-opacity="1" fill-rule="nonzero"/><path fill="rgb(5.879211%, 0%, 39.608765%)" d="M 8.351562 25.230469 L 33.984375 25.230469 L 33.984375 23.882812 L 8.351562 23.882812 L 8.351562 25.230469 " fill-opacity="1" fill-rule="nonzero"/><path fill="rgb(5.879211%, 0%, 39.608765%)" d="M 8.351562 36.03125 L 33.984375 36.03125 L 33.984375 34.679688 L 8.351562 34.679688 L 8.351562 36.03125 " fill-opacity="1" fill-rule="nonzero"/><path fill="rgb(5.879211%, 0%, 39.608765%)" d="M 16.445312 29.28125 L 8.351562 29.28125 L 8.351562 30.632812 L 16.445312 30.632812 L 16.445312 29.28125 " fill-opacity="1" fill-rule="nonzero"/><path fill="rgb(5.879211%, 0%, 39.608765%)" d="M 27.238281 30.632812 L 33.984375 30.632812 L 33.984375 29.28125 L 27.238281 29.28125 L 27.238281 30.632812 " fill-opacity="1" fill-rule="nonzero"/><path fill="rgb(5.879211%, 0%, 39.608765%)" d="M 15.097656 31.980469 L 8.351562 31.980469 L 8.351562 33.332031 L 15.097656 33.332031 L 15.097656 31.980469 " fill-opacity="1" fill-rule="nonzero"/><path fill="rgb(5.879211%, 0%, 39.608765%)" d="M 28.589844 33.332031 L 33.984375 33.332031 L 33.984375 31.980469 L 28.589844 31.980469 L 28.589844 33.332031 " fill-opacity="1" fill-rule="nonzero"/><path fill="rgb(5.879211%, 0%, 39.608765%)" d="M 13.75 26.582031 L 8.351562 26.582031 L 8.351562 27.929688 L 13.75 27.929688 L 13.75 26.582031 " fill-opacity="1" fill-rule="nonzero"/><path fill="rgb(5.879211%, 0%, 39.608765%)" d="M 28.589844 27.929688 L 33.984375 27.929688 L 33.984375 26.582031 L 28.589844 26.582031 L 28.589844 27.929688 " fill-opacity="1" fill-rule="nonzero"/><path fill="rgb(5.879211%, 0%, 39.608765%)" d="M 8.351562 38.730469 L 11.726562 38.730469 L 11.726562 37.382812 L 8.351562 37.382812 L 8.351562 38.730469 " fill-opacity="1" fill-rule="nonzero"/><path fill="rgb(5.879211%, 0%, 39.608765%)" d="M 27.238281 38.730469 L 33.984375 38.730469 L 33.984375 37.382812 L 27.238281 37.382812 L 27.238281 38.730469 " fill-opacity="1" fill-rule="nonzero"/></svg>