<svg xmlns="http://www.w3.org/2000/svg" xmlns:xlink="http://www.w3.org/1999/xlink" width="60" zoomAndPan="magnify" viewBox="0 0 45 44.999999" height="60" preserveAspectRatio="xMidYMid meet" version="1.0"><defs><clipPath id="id1"><path d="M 15 2.25 L 38 2.25 L 38 25 L 15 25 Z M 15 2.25 " clip-rule="nonzero"/></clipPath><clipPath id="id2"><path d="M 0.984375 26 L 43.734375 26 L 43.734375 42.75 L 0.984375 42.75 Z M 0.984375 26 " clip-rule="nonzero"/></clipPath></defs><g clip-path="url(#id1)"><path fill="rgb(5.879211%, 0%, 39.608765%)" d="M 16.253906 24.207031 L 36.816406 24.207031 C 36.992188 24.207031 37.140625 24.144531 37.261719 24.019531 C 37.386719 23.894531 37.449219 23.746094 37.449219 23.570312 L 37.449219 2.878906 C 37.449219 2.703125 37.386719 2.554688 37.261719 2.429688 C 37.140625 2.304688 36.992188 2.242188 36.816406 2.242188 L 16.253906 2.242188 C 16.078125 2.242188 15.929688 2.304688 15.804688 2.429688 C 15.683594 2.554688 15.621094 2.703125 15.621094 2.878906 L 15.621094 23.570312 C 15.621094 23.746094 15.683594 23.894531 15.804688 24.019531 C 15.929688 24.144531 16.078125 24.207031 16.253906 24.207031 Z M 16.882812 22.9375 L 16.882812 9.03125 L 22.703125 9.03125 L 22.703125 12.660156 C 22.703125 12.945312 22.832031 13.140625 23.09375 13.25 C 23.351562 13.355469 23.582031 13.3125 23.78125 13.109375 L 26.535156 10.339844 L 29.285156 13.109375 C 29.484375 13.3125 29.714844 13.355469 29.972656 13.25 C 30.234375 13.140625 30.363281 12.945312 30.363281 12.660156 L 30.363281 9.03125 L 36.183594 9.03125 L 36.183594 22.9375 Z M 29.101562 11.128906 L 26.980469 8.992188 C 26.859375 8.871094 26.710938 8.808594 26.535156 8.808594 C 26.359375 8.808594 26.210938 8.871094 26.089844 8.992188 L 23.964844 11.128906 L 23.964844 3.511719 L 29.101562 3.511719 Z M 36.183594 7.761719 L 30.363281 7.761719 L 30.363281 3.511719 L 36.183594 3.511719 Z M 22.703125 3.511719 L 22.703125 7.761719 L 16.882812 7.761719 L 16.882812 3.511719 Z M 22.703125 3.511719 " fill-opacity="1" fill-rule="nonzero"/></g><path fill="rgb(5.879211%, 0%, 39.608765%)" d="M 23.335938 17.648438 L 18.765625 17.648438 C 18.59375 17.648438 18.441406 17.710938 18.320312 17.832031 C 18.195312 17.957031 18.136719 18.105469 18.136719 18.28125 L 18.136719 21.042969 C 18.136719 21.21875 18.195312 21.367188 18.320312 21.492188 C 18.441406 21.613281 18.59375 21.675781 18.765625 21.675781 L 23.335938 21.675781 C 23.511719 21.675781 23.660156 21.613281 23.78125 21.492188 C 23.90625 21.367188 23.964844 21.21875 23.964844 21.042969 L 23.964844 18.28125 C 23.964844 18.105469 23.90625 17.957031 23.78125 17.832031 C 23.660156 17.710938 23.511719 17.648438 23.335938 17.648438 Z M 22.703125 20.40625 L 19.398438 20.40625 L 19.398438 18.917969 L 22.703125 18.917969 Z M 22.703125 20.40625 " fill-opacity="1" fill-rule="nonzero"/><g clip-path="url(#id2)"><path fill="rgb(5.879211%, 0%, 39.608765%)" d="M 42.941406 30.355469 C 42.75 30.050781 42.507812 29.789062 42.214844 29.578125 C 41.921875 29.367188 41.597656 29.222656 41.246094 29.140625 C 40.894531 29.058594 40.539062 29.046875 40.183594 29.105469 C 39.828125 29.167969 39.496094 29.292969 39.191406 29.484375 L 32.339844 33.785156 C 32.34375 33.203125 32.183594 32.671875 31.851562 32.191406 C 31.519531 31.714844 31.078125 31.375 30.53125 31.179688 L 19.511719 27.230469 C 18.347656 26.808594 17.152344 26.667969 15.925781 26.804688 C 14.699219 26.941406 13.5625 27.339844 12.519531 28.007812 L 10.160156 29.503906 L 1.597656 29.503906 C 1.425781 29.503906 1.277344 29.566406 1.152344 29.6875 C 1.03125 29.8125 0.96875 29.960938 0.96875 30.136719 C 0.96875 30.3125 1.03125 30.464844 1.152344 30.585938 C 1.277344 30.710938 1.425781 30.773438 1.597656 30.773438 L 10.34375 30.773438 C 10.464844 30.773438 10.578125 30.742188 10.679688 30.675781 L 13.191406 29.082031 C 14.070312 28.519531 15.027344 28.183594 16.0625 28.066406 C 17.097656 27.953125 18.105469 28.070312 19.085938 28.425781 L 30.109375 32.378906 C 30.289062 32.445312 30.453125 32.542969 30.59375 32.671875 C 30.738281 32.804688 30.851562 32.957031 30.933594 33.132812 C 31.015625 33.308594 31.058594 33.492188 31.070312 33.6875 C 31.078125 33.882812 31.050781 34.070312 30.984375 34.253906 C 30.921875 34.433594 30.824219 34.597656 30.695312 34.742188 C 30.566406 34.886719 30.414062 35 30.242188 35.085938 C 30.066406 35.167969 29.882812 35.214844 29.691406 35.226562 C 29.5 35.238281 29.3125 35.210938 29.128906 35.148438 L 21.042969 32.25 C 20.878906 32.191406 20.71875 32.199219 20.5625 32.273438 C 20.402344 32.351562 20.296875 32.46875 20.238281 32.636719 C 20.179688 32.800781 20.1875 32.964844 20.261719 33.121094 C 20.335938 33.28125 20.457031 33.390625 20.621094 33.449219 L 28.707031 36.347656 C 29.515625 36.636719 30.285156 36.558594 31.019531 36.105469 C 31.042969 36.09375 39.859375 30.5625 39.859375 30.5625 C 40.023438 30.457031 40.203125 30.386719 40.394531 30.351562 C 40.589844 30.316406 40.78125 30.324219 40.96875 30.367188 C 41.160156 30.410156 41.335938 30.488281 41.496094 30.601562 C 41.65625 30.714844 41.785156 30.855469 41.890625 31.023438 C 41.992188 31.1875 42.0625 31.367188 42.09375 31.5625 C 42.125 31.757812 42.117188 31.949219 42.070312 32.140625 C 42.027344 32.332031 41.945312 32.507812 41.832031 32.667969 C 41.714844 32.824219 41.574219 32.957031 41.40625 33.058594 L 29.035156 40.832031 C 28.375 41.246094 27.660156 41.453125 26.882812 41.453125 L 1.597656 41.453125 C 1.425781 41.453125 1.277344 41.511719 1.152344 41.636719 C 1.03125 41.761719 0.96875 41.910156 0.96875 42.085938 C 0.96875 42.261719 1.03125 42.410156 1.152344 42.535156 C 1.277344 42.660156 1.425781 42.722656 1.597656 42.722656 L 26.882812 42.722656 C 27.898438 42.722656 28.839844 42.453125 29.703125 41.910156 L 42.078125 34.136719 C 42.382812 33.941406 42.640625 33.699219 42.851562 33.402344 C 43.058594 33.105469 43.203125 32.78125 43.285156 32.425781 C 43.367188 32.070312 43.378906 31.714844 43.316406 31.359375 C 43.257812 31 43.132812 30.664062 42.941406 30.355469 Z M 42.941406 30.355469 " fill-opacity="1" fill-rule="nonzero"/></g><path fill="rgb(5.879211%, 0%, 39.608765%)" d="M 6.980469 13.859375 L 12.046875 13.859375 C 12.222656 13.859375 12.371094 13.796875 12.492188 13.671875 C 12.617188 13.550781 12.679688 13.398438 12.679688 13.222656 C 12.679688 13.050781 12.617188 12.898438 12.492188 12.773438 C 12.371094 12.652344 12.222656 12.589844 12.046875 12.589844 L 6.980469 12.589844 C 6.808594 12.589844 6.65625 12.652344 6.535156 12.773438 C 6.410156 12.898438 6.351562 13.050781 6.351562 13.222656 C 6.351562 13.398438 6.410156 13.550781 6.535156 13.671875 C 6.65625 13.796875 6.808594 13.859375 6.980469 13.859375 Z M 6.980469 13.859375 " fill-opacity="1" fill-rule="nonzero"/><path fill="rgb(5.879211%, 0%, 39.608765%)" d="M 12.046875 16.691406 L 9.515625 16.691406 C 9.339844 16.691406 9.191406 16.753906 9.066406 16.878906 C 8.945312 17 8.882812 17.152344 8.882812 17.328125 C 8.882812 17.503906 8.945312 17.652344 9.066406 17.777344 C 9.191406 17.898438 9.339844 17.960938 9.515625 17.960938 L 12.046875 17.960938 C 12.222656 17.960938 12.371094 17.898438 12.492188 17.777344 C 12.617188 17.652344 12.679688 17.503906 12.679688 17.328125 C 12.679688 17.152344 12.617188 17 12.492188 16.878906 C 12.371094 16.753906 12.222656 16.691406 12.046875 16.691406 Z M 12.046875 16.691406 " fill-opacity="1" fill-rule="nonzero"/><path fill="rgb(5.879211%, 0%, 39.608765%)" d="M 9.515625 9.757812 L 12.046875 9.757812 C 12.222656 9.757812 12.371094 9.695312 12.492188 9.570312 C 12.617188 9.449219 12.679688 9.296875 12.679688 9.121094 C 12.679688 8.945312 12.617188 8.796875 12.492188 8.671875 C 12.371094 8.550781 12.222656 8.488281 12.046875 8.488281 L 9.515625 8.488281 C 9.339844 8.488281 9.191406 8.550781 9.066406 8.671875 C 8.945312 8.796875 8.882812 8.945312 8.882812 9.121094 C 8.882812 9.296875 8.945312 9.449219 9.066406 9.570312 C 9.191406 9.695312 9.339844 9.757812 9.515625 9.757812 Z M 9.515625 9.757812 " fill-opacity="1" fill-rule="nonzero"/></svg>