<svg xmlns="http://www.w3.org/2000/svg" xmlns:xlink="http://www.w3.org/1999/xlink" width="60" zoomAndPan="magnify" viewBox="0 0 45 44.999999" height="60" preserveAspectRatio="xMidYMid meet" version="1.0"><defs><clipPath id="id1"><path d="M 9.308594 0 L 35.558594 0 L 35.558594 45 L 9.308594 45 Z M 9.308594 0 " clip-rule="nonzero"/></clipPath></defs><g clip-path="url(#id1)"><path fill="rgb(5.879211%, 0%, 39.608765%)" d="M 31.699219 0 L 13.171875 0 C 12.660156 0 12.167969 0.0976562 11.691406 0.296875 C 11.21875 0.492188 10.804688 0.773438 10.441406 1.136719 C 10.078125 1.5 9.800781 1.921875 9.605469 2.394531 C 9.410156 2.871094 9.308594 3.363281 9.308594 3.878906 L 9.308594 41.121094 C 9.308594 41.636719 9.410156 42.132812 9.605469 42.605469 C 9.800781 43.082031 10.078125 43.5 10.441406 43.863281 C 10.804688 44.226562 11.21875 44.507812 11.691406 44.707031 C 12.167969 44.902344 12.660156 45 13.171875 45.003906 L 31.699219 45.003906 C 32.210938 45 32.703125 44.902344 33.175781 44.707031 C 33.648438 44.507812 34.066406 44.226562 34.429688 43.863281 C 34.792969 43.5 35.070312 43.082031 35.265625 42.605469 C 35.460938 42.132812 35.558594 41.636719 35.5625 41.121094 L 35.5625 3.878906 C 35.558594 3.363281 35.460938 2.871094 35.265625 2.394531 C 35.070312 1.921875 34.792969 1.5 34.429688 1.136719 C 34.066406 0.773438 33.648438 0.492188 33.175781 0.296875 C 32.703125 0.0976562 32.210938 0 31.699219 0 Z M 34.015625 41.121094 C 34.015625 41.429688 33.957031 41.726562 33.839844 42.011719 C 33.722656 42.296875 33.554688 42.550781 33.339844 42.769531 C 33.121094 42.988281 32.871094 43.15625 32.585938 43.273438 C 32.304688 43.390625 32.007812 43.449219 31.699219 43.449219 L 13.171875 43.449219 C 12.863281 43.449219 12.566406 43.390625 12.285156 43.273438 C 12 43.15625 11.75 42.984375 11.53125 42.769531 C 11.316406 42.550781 11.148438 42.296875 11.03125 42.011719 C 10.914062 41.726562 10.855469 41.429688 10.855469 41.121094 L 10.855469 3.878906 C 10.855469 3.570312 10.914062 3.273438 11.03125 2.988281 C 11.148438 2.703125 11.316406 2.453125 11.535156 2.234375 C 11.75 2.015625 12 1.847656 12.285156 1.730469 C 12.566406 1.613281 12.863281 1.550781 13.171875 1.550781 L 16.753906 1.550781 C 16.84375 1.988281 17.003906 2.398438 17.234375 2.78125 C 17.460938 3.164062 17.75 3.496094 18.09375 3.78125 C 18.4375 4.0625 18.820312 4.277344 19.238281 4.429688 C 19.660156 4.578125 20.089844 4.65625 20.535156 4.65625 L 23.203125 4.65625 C 23.421875 4.664062 23.609375 4.589844 23.765625 4.4375 C 23.925781 4.285156 24.003906 4.101562 24.003906 3.878906 C 24.003906 3.660156 23.925781 3.472656 23.765625 3.320312 C 23.609375 3.167969 23.421875 3.097656 23.203125 3.105469 L 20.535156 3.105469 C 20.042969 3.101562 19.597656 2.960938 19.199219 2.675781 C 18.796875 2.390625 18.515625 2.015625 18.351562 1.550781 L 26.519531 1.550781 C 26.386719 1.933594 26.167969 2.253906 25.867188 2.523438 C 25.707031 2.664062 25.621094 2.839844 25.609375 3.054688 C 25.59375 3.269531 25.660156 3.457031 25.800781 3.617188 C 25.941406 3.777344 26.117188 3.863281 26.332031 3.878906 C 26.542969 3.890625 26.730469 3.828125 26.890625 3.6875 C 27.535156 3.113281 27.945312 2.402344 28.117188 1.550781 L 31.699219 1.550781 C 32.007812 1.550781 32.304688 1.613281 32.585938 1.730469 C 32.871094 1.847656 33.121094 2.015625 33.335938 2.234375 C 33.554688 2.453125 33.722656 2.703125 33.839844 2.988281 C 33.957031 3.273438 34.015625 3.570312 34.015625 3.878906 Z M 34.015625 41.121094 " fill-opacity="1" fill-rule="nonzero"/></g><path fill="rgb(5.879211%, 0%, 39.608765%)" d="M 30.773438 20.652344 L 31.089844 20.332031 C 31.222656 20.179688 31.289062 20 31.28125 19.796875 C 31.273438 19.589844 31.199219 19.414062 31.054688 19.269531 C 30.910156 19.125 30.734375 19.050781 30.53125 19.046875 C 30.328125 19.039062 30.148438 19.105469 29.996094 19.242188 L 29.683594 19.554688 L 28.359375 16.03125 C 28.34375 15.992188 28.328125 15.953125 28.308594 15.917969 C 28.101562 15.558594 27.816406 15.269531 27.457031 15.0625 C 27.097656 14.851562 26.710938 14.746094 26.296875 14.746094 L 18.574219 14.746094 C 18.160156 14.746094 17.773438 14.851562 17.414062 15.058594 C 17.054688 15.269531 16.769531 15.554688 16.5625 15.914062 C 16.542969 15.949219 16.527344 15.988281 16.511719 16.027344 L 15.1875 19.550781 L 14.875 19.238281 C 14.71875 19.109375 14.542969 19.050781 14.34375 19.058594 C 14.144531 19.066406 13.976562 19.144531 13.832031 19.285156 C 13.691406 19.425781 13.617188 19.597656 13.609375 19.796875 C 13.597656 20 13.660156 20.175781 13.785156 20.328125 L 14.101562 20.648438 C 13.484375 21.109375 13.175781 21.726562 13.175781 22.496094 L 13.175781 24.050781 C 13.175781 24.65625 13.3125 25.234375 13.585938 25.777344 C 13.859375 26.320312 14.238281 26.773438 14.722656 27.136719 C 14.722656 27.140625 14.722656 27.148438 14.722656 27.152344 L 14.722656 28.703125 C 14.714844 29.015625 14.769531 29.320312 14.882812 29.609375 C 15 29.902344 15.164062 30.15625 15.382812 30.382812 C 15.601562 30.605469 15.851562 30.777344 16.140625 30.898438 C 16.425781 31.019531 16.726562 31.082031 17.039062 31.082031 C 17.347656 31.082031 17.648438 31.019531 17.933594 30.898438 C 18.222656 30.777344 18.476562 30.605469 18.691406 30.382812 C 18.910156 30.15625 19.078125 29.902344 19.191406 29.609375 C 19.304688 29.320312 19.359375 29.015625 19.355469 28.703125 L 19.355469 27.929688 L 25.53125 27.929688 L 25.53125 28.703125 C 25.53125 29.011719 25.589844 29.308594 25.707031 29.59375 C 25.824219 29.878906 25.992188 30.132812 26.210938 30.351562 C 26.425781 30.570312 26.675781 30.738281 26.960938 30.855469 C 27.246094 30.972656 27.539062 31.03125 27.847656 31.03125 C 28.15625 31.03125 28.449219 30.972656 28.734375 30.855469 C 29.019531 30.738281 29.269531 30.570312 29.484375 30.351562 C 29.703125 30.132812 29.871094 29.878906 29.988281 29.59375 C 30.105469 29.308594 30.164062 29.011719 30.164062 28.703125 L 30.164062 27.15625 C 30.164062 27.152344 30.164062 27.144531 30.164062 27.140625 C 30.648438 26.777344 31.027344 26.324219 31.300781 25.78125 C 31.574219 25.238281 31.710938 24.660156 31.710938 24.054688 L 31.710938 22.5 C 31.707031 21.726562 31.394531 21.109375 30.773438 20.652344 Z M 17.933594 16.640625 C 18.085938 16.410156 18.300781 16.292969 18.574219 16.292969 L 26.296875 16.292969 C 26.570312 16.292969 26.785156 16.410156 26.941406 16.640625 L 28.265625 20.175781 L 16.601562 20.175781 Z M 17.804688 28.707031 C 17.8125 28.929688 17.738281 29.117188 17.585938 29.273438 C 17.433594 29.433594 17.25 29.511719 17.03125 29.511719 C 16.8125 29.511719 16.625 29.433594 16.476562 29.273438 C 16.324219 29.117188 16.25 28.929688 16.257812 28.707031 L 16.257812 27.933594 L 17.804688 27.933594 Z M 28.613281 27.933594 L 28.613281 28.707031 C 28.613281 28.921875 28.539062 29.105469 28.386719 29.257812 C 28.234375 29.410156 28.054688 29.484375 27.839844 29.484375 C 27.628906 29.484375 27.445312 29.410156 27.292969 29.257812 C 27.144531 29.105469 27.066406 28.921875 27.070312 28.707031 L 27.070312 27.933594 Z M 30.15625 24.054688 C 30.15625 24.363281 30.097656 24.660156 29.980469 24.945312 C 29.863281 25.230469 29.695312 25.480469 29.476562 25.699219 C 29.261719 25.917969 29.011719 26.085938 28.726562 26.203125 C 28.441406 26.320312 28.148438 26.382812 27.839844 26.382812 L 17.03125 26.382812 C 16.722656 26.382812 16.429688 26.320312 16.144531 26.203125 C 15.859375 26.085938 15.609375 25.917969 15.394531 25.699219 C 15.175781 25.480469 15.007812 25.230469 14.890625 24.945312 C 14.773438 24.660156 14.714844 24.363281 14.714844 24.054688 L 14.714844 22.5 C 14.714844 22.285156 14.789062 22.105469 14.941406 21.953125 C 15.089844 21.800781 15.273438 21.726562 15.488281 21.726562 L 29.382812 21.726562 C 29.597656 21.726562 29.777344 21.800781 29.929688 21.953125 C 30.082031 22.105469 30.15625 22.285156 30.15625 22.5 Z M 30.15625 24.054688 " fill-opacity="1" fill-rule="nonzero"/><path fill="rgb(5.879211%, 0%, 39.608765%)" d="M 17.804688 24.054688 C 17.804688 24.269531 17.730469 24.453125 17.578125 24.605469 C 17.425781 24.757812 17.246094 24.832031 17.03125 24.832031 C 16.816406 24.832031 16.632812 24.757812 16.480469 24.605469 C 16.332031 24.453125 16.253906 24.269531 16.253906 24.054688 C 16.253906 23.839844 16.332031 23.652344 16.480469 23.503906 C 16.632812 23.351562 16.816406 23.273438 17.03125 23.273438 C 17.246094 23.273438 17.425781 23.351562 17.578125 23.503906 C 17.730469 23.652344 17.804688 23.839844 17.804688 24.054688 Z M 17.804688 24.054688 " fill-opacity="1" fill-rule="nonzero"/><path fill="rgb(5.879211%, 0%, 39.608765%)" d="M 27.847656 24.054688 C 27.847656 24.269531 27.773438 24.453125 27.621094 24.605469 C 27.46875 24.757812 27.285156 24.832031 27.074219 24.832031 C 26.859375 24.832031 26.675781 24.757812 26.523438 24.605469 C 26.371094 24.453125 26.296875 24.269531 26.296875 24.054688 C 26.296875 23.839844 26.371094 23.652344 26.523438 23.503906 C 26.675781 23.351562 26.859375 23.273438 27.074219 23.273438 C 27.285156 23.273438 27.46875 23.351562 27.621094 23.503906 C 27.773438 23.652344 27.847656 23.839844 27.847656 24.054688 Z M 27.847656 24.054688 " fill-opacity="1" fill-rule="nonzero"/><path fill="rgb(5.879211%, 0%, 39.608765%)" d="M 21.117188 17.296875 L 20.34375 18.074219 C 20.261719 18.144531 20.195312 18.230469 20.148438 18.328125 C 20.101562 18.425781 20.074219 18.527344 20.070312 18.636719 C 20.0625 18.746094 20.082031 18.851562 20.121094 18.953125 C 20.160156 19.054688 20.21875 19.144531 20.292969 19.21875 C 20.371094 19.296875 20.460938 19.355469 20.558594 19.394531 C 20.660156 19.433594 20.765625 19.449219 20.875 19.445312 C 20.984375 19.441406 21.085938 19.414062 21.183594 19.367188 C 21.28125 19.316406 21.363281 19.25 21.433594 19.167969 L 22.203125 18.390625 C 22.339844 18.238281 22.40625 18.058594 22.398438 17.855469 C 22.394531 17.648438 22.320312 17.476562 22.175781 17.328125 C 22.03125 17.183594 21.855469 17.109375 21.652344 17.101562 C 21.449219 17.09375 21.269531 17.160156 21.117188 17.292969 Z M 21.117188 17.296875 " fill-opacity="1" fill-rule="nonzero"/><path fill="rgb(5.879211%, 0%, 39.608765%)" d="M 23.980469 23.277344 L 20.117188 23.277344 C 19.90625 23.277344 19.722656 23.351562 19.574219 23.503906 C 19.421875 23.65625 19.347656 23.839844 19.347656 24.054688 C 19.347656 24.265625 19.421875 24.449219 19.574219 24.601562 C 19.722656 24.753906 19.90625 24.828125 20.117188 24.828125 L 23.980469 24.828125 C 24.191406 24.828125 24.375 24.753906 24.527344 24.601562 C 24.675781 24.449219 24.75 24.265625 24.75 24.054688 C 24.75 23.839844 24.675781 23.65625 24.527344 23.503906 C 24.375 23.351562 24.191406 23.277344 23.980469 23.277344 Z M 23.980469 23.277344 " fill-opacity="1" fill-rule="nonzero"/></svg>