<svg xmlns="http://www.w3.org/2000/svg" xmlns:xlink="http://www.w3.org/1999/xlink" width="60" zoomAndPan="magnify" viewBox="0 0 45 44.999999" height="60" preserveAspectRatio="xMidYMid meet" version="1.0"><defs><clipPath id="id1"><path d="M 5 1.414062 L 40.679688 1.414062 L 40.679688 43.414062 L 5 43.414062 Z M 5 1.414062 " clip-rule="nonzero"/></clipPath><clipPath id="id2"><path d="M 5 1.414062 L 36 1.414062 L 36 43 L 5 43 Z M 5 1.414062 " clip-rule="nonzero"/></clipPath></defs><g clip-path="url(#id1)"><path fill="rgb(5.879211%, 0%, 39.608765%)" d="M 18.0625 6.539062 L 15.796875 8.753906 C 15.40625 9.132812 15.402344 9.753906 15.789062 10.136719 C 15.792969 10.136719 15.792969 10.140625 15.796875 10.140625 L 18.0625 12.394531 C 18.679688 13.011719 18.679688 14.007812 18.0625 14.625 C 17.757812 14.910156 17.347656 15.074219 16.929688 15.074219 C 16.507812 15.074219 16.101562 14.910156 15.796875 14.625 L 13.535156 12.371094 C 13.175781 11.996094 12.570312 11.976562 12.1875 12.332031 C 12.171875 12.347656 12.15625 12.359375 12.144531 12.371094 L 9.859375 14.625 C 9.566406 14.914062 9.167969 15.074219 8.75 15.074219 C 7.882812 15.085938 7.175781 14.402344 7.164062 13.546875 C 7.164062 13.535156 7.164062 13.519531 7.164062 13.511719 C 7.160156 13.097656 7.324219 12.707031 7.621094 12.414062 L 9.882812 10.140625 C 10.265625 9.785156 10.285156 9.191406 9.925781 8.8125 C 9.910156 8.796875 9.894531 8.785156 9.882812 8.773438 L 7.621094 6.539062 C 7.007812 5.917969 7.007812 4.929688 7.621094 4.308594 C 8.238281 3.699219 9.242188 3.699219 9.859375 4.308594 L 12.144531 6.5625 C 12.527344 6.933594 13.148438 6.933594 13.535156 6.5625 L 15.796875 4.308594 C 16.425781 3.699219 17.433594 3.699219 18.0625 4.308594 C 18.351562 4.609375 18.511719 5.007812 18.515625 5.425781 C 18.515625 5.839844 18.355469 6.242188 18.0625 6.539062 Z M 20.503906 5.425781 C 20.527344 3.476562 18.953125 1.878906 16.976562 1.855469 C 16.015625 1.839844 15.089844 2.210938 14.40625 2.882812 L 12.839844 4.425781 L 11.269531 2.882812 C 9.875 1.511719 7.625 1.511719 6.226562 2.882812 C 5.535156 3.546875 5.152344 4.46875 5.179688 5.425781 C 5.179688 6.355469 5.558594 7.253906 6.226562 7.914062 L 7.777344 9.457031 L 6.226562 11.003906 C 4.835938 12.382812 4.839844 14.613281 6.238281 15.988281 C 6.90625 16.640625 7.808594 17.007812 8.75 17.011719 C 9.695312 17.019531 10.601562 16.652344 11.269531 15.996094 L 12.839844 14.449219 L 14.40625 15.996094 C 15.078125 16.652344 15.984375 17.019531 16.929688 17.011719 C 17.871094 17.019531 18.78125 16.652344 19.449219 15.996094 C 20.125 15.332031 20.503906 14.429688 20.503906 13.488281 C 20.503906 12.554688 20.125 11.660156 19.449219 11.003906 L 17.902344 9.457031 L 19.449219 7.929688 C 20.121094 7.265625 20.5 6.363281 20.503906 5.425781 Z M 27.488281 38.425781 L 29.753906 36.15625 C 30.128906 35.765625 30.128906 35.152344 29.753906 34.761719 L 27.488281 32.535156 C 26.871094 31.933594 26.859375 30.957031 27.464844 30.347656 C 27.46875 30.339844 27.480469 30.332031 27.488281 30.320312 C 28.117188 29.734375 29.101562 29.734375 29.734375 30.320312 L 31.992188 32.554688 C 32.378906 32.9375 33.011719 32.941406 33.398438 32.558594 C 33.398438 32.558594 33.402344 32.558594 33.402344 32.554688 L 35.667969 30.28125 C 36.316406 29.703125 37.320312 29.75 37.910156 30.390625 C 38.457031 30.988281 38.457031 31.898438 37.910156 32.496094 L 35.648438 34.726562 C 35.460938 34.917969 35.355469 35.167969 35.351562 35.433594 C 35.355469 35.6875 35.460938 35.933594 35.648438 36.117188 L 37.910156 38.34375 C 38.496094 38.988281 38.449219 39.980469 37.800781 40.558594 C 37.195312 41.101562 36.273438 41.101562 35.667969 40.558594 L 33.402344 38.328125 C 33.007812 37.960938 32.390625 37.960938 31.992188 38.328125 L 29.734375 40.558594 C 29.445312 40.863281 29.039062 41.035156 28.621094 41.027344 C 27.734375 41.011719 27.023438 40.292969 27.042969 39.414062 C 27.050781 39.015625 27.210938 38.632812 27.488281 38.34375 Z M 26.078125 42.03125 C 26.746094 42.691406 27.652344 43.066406 28.601562 43.066406 C 29.554688 43.070312 30.46875 42.695312 31.140625 42.03125 L 32.691406 40.480469 L 34.257812 42.03125 C 35.671875 43.402344 37.945312 43.382812 39.339844 41.988281 C 39.992188 41.339844 40.359375 40.460938 40.371094 39.542969 C 40.367188 38.605469 39.988281 37.703125 39.320312 37.035156 L 37.753906 35.511719 L 39.320312 33.960938 C 40.710938 32.582031 40.710938 30.351562 39.320312 28.972656 C 37.917969 27.601562 35.660156 27.601562 34.257812 28.972656 L 32.710938 30.519531 L 31.140625 28.972656 C 29.722656 27.640625 27.496094 27.640625 26.078125 28.972656 C 25.417969 29.621094 25.042969 30.5 25.027344 31.417969 C 25.027344 32.351562 25.40625 33.25 26.078125 33.902344 L 27.648438 35.453125 L 26.078125 36.976562 C 24.664062 38.347656 24.648438 40.59375 26.039062 41.988281 C 26.054688 42 26.0625 42.015625 26.078125 42.03125 " fill-opacity="1" fill-rule="nonzero"/></g><g clip-path="url(#id2)"><path fill="rgb(5.879211%, 0%, 39.608765%)" d="M 16.632812 35.667969 C 16.644531 38.226562 14.542969 40.3125 11.945312 40.324219 C 9.347656 40.335938 7.234375 38.269531 7.222656 35.707031 C 7.210938 33.144531 9.308594 31.058594 11.90625 31.046875 C 11.914062 31.046875 11.921875 31.046875 11.925781 31.046875 C 14.484375 31.089844 16.539062 33.144531 16.550781 35.667969 Z M 32.507812 13.410156 L 32.507812 5.132812 L 33.34375 5.894531 C 33.527344 6.066406 33.765625 6.164062 34.019531 6.167969 C 34.296875 6.167969 34.5625 6.054688 34.753906 5.855469 C 35.144531 5.476562 35.148438 4.855469 34.761719 4.46875 C 34.757812 4.46875 34.757812 4.464844 34.753906 4.464844 L 32.195312 2.15625 C 31.804688 1.835938 31.234375 1.835938 30.84375 2.15625 L 28.34375 4.464844 C 27.953125 4.847656 27.949219 5.464844 28.335938 5.847656 C 28.339844 5.851562 28.339844 5.851562 28.34375 5.855469 C 28.71875 6.234375 29.332031 6.242188 29.71875 5.871094 C 29.722656 5.863281 29.726562 5.859375 29.734375 5.855469 L 30.566406 5.089844 L 30.566406 13.410156 C 30.566406 16.472656 28.054688 18.957031 24.949219 18.96875 L 18.496094 18.96875 C 14.289062 18.980469 10.875 22.335938 10.855469 26.484375 L 10.855469 29.1875 C 7.199219 29.730469 4.679688 33.085938 5.230469 36.691406 C 5.78125 40.292969 9.183594 42.773438 12.839844 42.234375 C 16.492188 41.691406 19.011719 38.335938 18.460938 34.734375 C 18.027344 31.867188 15.746094 29.621094 12.839844 29.1875 L 12.839844 26.484375 C 12.851562 23.414062 15.378906 20.925781 18.496094 20.925781 L 24.90625 20.925781 C 29.109375 20.914062 32.507812 17.554688 32.507812 13.410156 " fill-opacity="1" fill-rule="nonzero"/></g></svg>